<?xml version="1.0" encoding="UTF-8" standalone="no"?>
<svg width="22px" height="22px" viewBox="0 0 22 22" version="1.1" xmlns="http://www.w3.org/2000/svg" xmlns:xlink="http://www.w3.org/1999/xlink">
    <!-- Generator: Sketch 3.6.1 (26313) - http://www.bohemiancoding.com/sketch -->
    <title>Group</title>
    <desc>Created with Sketch.</desc>
    <defs></defs>
    <g id="Page-1" stroke="none" stroke-width="1" fill="none" fill-rule="evenodd">
        <g id="Configured-Connectors_1.1-Copy-31" transform="translate(-87.000000, -85.000000)">
            <g id="Steppers-2" transform="translate(86.000000, 83.000000)">
                <g id="ic_check_circle_black_48px-copy-4" transform="translate(0.000000, 1.000000)">
                    <g id="Group">
                        <path d="M0,0 L24,0 L24,24 L0,24 L0,0 Z" id="Shape"></path>
                        <path d="M12,2 C6.48,2 2,6.48 2,12 C2,17.52 6.48,22 12,22 C17.52,22 22,17.52 22,12 C22,6.48 17.52,2 12,2 L12,2 Z" id="Shape" stroke="#2196F3"></path>
                        <path d="M9.5,17 L4.5,12 L5.91,10.59 L9.5,14.17 L17.09,6.58 L18.5,8 L9.5,17 L9.5,17 Z" id="Path" fill="#2196F3"></path>
                    </g>
                </g>
            </g>
        </g>
    </g>
</svg>