<?xml version="1.0" encoding="UTF-8" standalone="no"?>
<svg width="25px" height="25px" viewBox="0 0 25 25" version="1.1" xmlns="http://www.w3.org/2000/svg" xmlns:xlink="http://www.w3.org/1999/xlink">
    <!-- Generator: Sketch 3.6.1 (26313) - http://www.bohemiancoding.com/sketch -->
    <title>Group</title>
    <desc>Created with Sketch.</desc>
    <defs></defs>
    <g id="Page-1" stroke="none" stroke-width="1" fill="none" fill-rule="evenodd">
        <g id="Configured-Connectors_1.1-Copy-8" transform="translate(-1855.000000, -619.000000)">
            <g id="Option-1" transform="translate(24.000000, 581.000000)">
                <g id="Information">
                    <g id="ic_highlight_off_24px" transform="translate(1829.000000, 36.000000)">
                        <g id="Group">
                            <path d="M0,0 L30,0 L30,30 L0,30 L0,0 Z" id="Shape"></path>
                            <path d="M17.608,9.7 L14.5,12.808 L11.392,9.7 L9.7,11.392 L12.808,14.5 L9.7,17.608 L11.392,19.3 L14.5,16.192 L17.608,19.3 L19.3,17.608 L16.192,14.5 L19.3,11.392 L17.608,9.7 L17.608,9.7 Z M14.5,2.5 C7.864,2.5 2.5,7.864 2.5,14.5 C2.5,21.136 7.864,26.5 14.5,26.5 C21.136,26.5 26.5,21.136 26.5,14.5 C26.5,7.864 21.136,2.5 14.5,2.5 L14.5,2.5 Z M14.5,24.1 C9.208,24.1 4.9,19.792 4.9,14.5 C4.9,9.208 9.208,4.9 14.5,4.9 C19.792,4.9 24.1,9.208 24.1,14.5 C24.1,19.792 19.792,24.1 14.5,24.1 L14.5,24.1 Z" id="Shape" fill="#2196F3"></path>
                        </g>
                    </g>
                </g>
            </g>
        </g>
    </g>
</svg>