<?xml version="1.0" encoding="UTF-8" standalone="no"?>
<svg width="14px" height="24px" viewBox="0 0 14 24" version="1.1" xmlns="http://www.w3.org/2000/svg" xmlns:xlink="http://www.w3.org/1999/xlink">
    <!-- Generator: Sketch 3.6.1 (26313) - http://www.bohemiancoding.com/sketch -->
    <title>Group</title>
    <desc>Created with Sketch.</desc>
    <defs></defs>
    <g id="Page-1" stroke="none" stroke-width="1" fill="none" fill-rule="evenodd">
        <g id="Configured-Connectors_1.1-Copy-20" transform="translate(-30.000000, -390.000000)">
            <g id="Main-Nav-Copy" transform="translate(-2.000000, 8.000000)">
                <g id="home" transform="translate(24.000000, 156.000000)">
                    <g id="Money" transform="translate(0.000000, 222.000000)">
                        <g id="Group">
                            <path d="M15.7333333,14.5333333 C12.7066667,13.7466667 11.7333333,12.9333333 11.7333333,11.6666667 C11.7333333,10.2133333 13.08,9.2 15.3333333,9.2 C17.7066667,9.2 18.5866667,10.3333333 18.6666667,12 L21.6133333,12 C21.52,9.70666667 20.12,7.6 17.3333333,6.92 L17.3333333,4 L13.3333333,4 L13.3333333,6.88 C10.7466667,7.44 8.66666667,9.12 8.66666667,11.6933333 C8.66666667,14.7733333 11.2133333,16.3066667 14.9333333,17.2 C18.2666667,18 18.9333333,19.1733333 18.9333333,20.4133333 C18.9333333,21.3333333 18.28,22.8 15.3333333,22.8 C12.5866667,22.8 11.5066667,21.5733333 11.36,20 L8.42666667,20 C8.58666667,22.92 10.7733333,24.56 13.3333333,25.1066667 L13.3333333,28 L17.3333333,28 L17.3333333,25.1333333 C19.9333333,24.64 22,23.1333333 22,20.4 C22,16.6133333 18.76,15.32 15.7333333,14.5333333 L15.7333333,14.5333333 Z" id="Shape" fill="#FFFFFF"></path>
                            <path d="M0,0 L32,0 L32,32 L0,32 L0,0 Z" id="Shape"></path>
                        </g>
                    </g>
                </g>
            </g>
        </g>
    </g>
</svg>