<?xml version="1.0" encoding="UTF-8" standalone="no"?>
<svg width="22px" height="24px" viewBox="0 0 22 24" version="1.1" xmlns="http://www.w3.org/2000/svg" xmlns:xlink="http://www.w3.org/1999/xlink">
    <!-- Generator: Sketch 3.6.1 (26313) - http://www.bohemiancoding.com/sketch -->
    <title>Shape</title>
    <desc>Created with Sketch.</desc>
    <defs></defs>
    <g id="Page-1" stroke="none" stroke-width="1" fill="none" fill-rule="evenodd">
        <g id="Configured-Connectors_1.1-Copy-20" transform="translate(-27.000000, -241.000000)" fill="#FFFFFF">
            <g id="Main-Nav-Copy" transform="translate(-2.000000, 8.000000)">
                <g id="Highlighted-Copy" transform="translate(29.000000, 233.000000)">
                    <path d="M10.6666667,0 C4.77333333,0 0,2.38666667 0,5.33333333 C0,8.28 4.77333333,10.6666667 10.6666667,10.6666667 C16.56,10.6666667 21.3333333,8.28 21.3333333,5.33333333 C21.3333333,2.38666667 16.56,0 10.6666667,0 L10.6666667,0 Z M0,8 L0,12 C0,14.9466667 4.77333333,17.3333333 10.6666667,17.3333333 C16.56,17.3333333 21.3333333,14.9466667 21.3333333,12 L21.3333333,8 C21.3333333,10.9466667 16.56,13.3333333 10.6666667,13.3333333 C4.77333333,13.3333333 0,10.9466667 0,8 L0,8 Z M0,14.6666667 L0,18.6666667 C0,21.6133333 4.77333333,24 10.6666667,24 C16.56,24 21.3333333,21.6133333 21.3333333,18.6666667 L21.3333333,14.6666667 C21.3333333,17.6133333 16.56,20 10.6666667,20 C4.77333333,20 0,17.6133333 0,14.6666667 L0,14.6666667 Z" id="Shape"></path>
                </g>
            </g>
        </g>
    </g>
</svg>