<?xml version="1.0" encoding="UTF-8" standalone="no"?>
<svg width="13px" height="22px" viewBox="0 0 13 22" version="1.1" xmlns="http://www.w3.org/2000/svg" xmlns:xlink="http://www.w3.org/1999/xlink">
    <!-- Generator: Sketch 3.6.1 (26313) - http://www.bohemiancoding.com/sketch -->
    <title>Shape Copy 3</title>
    <desc>Created with Sketch.</desc>
    <defs></defs>
    <g id="Page-1" stroke="none" stroke-width="1" fill="none" fill-rule="evenodd">
        <g id="Configured-Connectors_1.1-Copy-21" transform="translate(-97.000000, -662.000000)" fill="#FFFFFF">
            <g id="Main-Nav-Copy" transform="translate(-2.000000, 8.000000)">
                <g id="home" transform="translate(24.000000, 156.000000)">
                    <g id="Money" transform="translate(8.000000, 226.000000)">
                        <g id="Group">
                            <path d="M73.6961328,281.655556 C70.9223698,280.934444 70.0303667,280.188889 70.0303667,279.027778 C70.0303667,277.695556 71.2645079,276.766667 73.3295562,276.766667 C75.5045774,276.766667 76.311046,277.805556 76.3843613,279.333333 L79.084809,279.333333 C78.9992745,277.231111 77.7162563,275.3 75.1624392,274.676667 L75.1624392,272 L71.4966731,272 L71.4966731,274.64 C69.1261444,275.153333 67.219946,276.693333 67.219946,279.052222 C67.219946,281.875556 69.5538171,283.281111 72.9629796,284.1 C76.0177847,284.833333 76.6287457,285.908889 76.6287457,287.045556 C76.6287457,287.888889 76.0300039,289.233333 73.3295562,289.233333 C70.8123968,289.233333 69.8226399,288.108889 69.6882285,286.666667 L67,286.666667 C67.1466306,289.343333 69.1505828,290.846667 71.4966731,291.347778 L71.4966731,294 L75.1624392,294 L75.1624392,291.372222 C77.5451872,290.92 79.4391664,289.538889 79.4391664,287.033333 C79.4391664,283.562222 76.4698958,282.376667 73.6961328,281.655556 L73.6961328,281.655556 Z" id="Shape-Copy-3"></path>
                        </g>
                    </g>
                </g>
            </g>
        </g>
    </g>
</svg>