<?xml version="1.0" encoding="UTF-8" standalone="no"?>
<svg width="18px" height="19px" viewBox="0 0 18 19" version="1.1" xmlns="http://www.w3.org/2000/svg" xmlns:xlink="http://www.w3.org/1999/xlink">
    <!-- Generator: Sketch 3.6.1 (26313) - http://www.bohemiancoding.com/sketch -->
    <title>fx</title>
    <desc>Created with Sketch.</desc>
    <defs></defs>
    <g id="Page-1" stroke="none" stroke-width="1" fill="none" fill-rule="evenodd">
        <g id="Task_Mapping_5.2" transform="translate(-1206.000000, -378.000000)" fill="#6F6F6F">
            <g id="ic_functions_black_24px" transform="translate(1202.000000, 375.000000)">
                <g id="Group">
                    <path d="M6.08006816,21.2275391 C5.67792919,21.2275391 5.31367834,21.1663449 4.98730469,21.0439548 L4.98730469,19.8113176 C5.36030315,19.9395358 5.68667191,20.003644 5.96642076,20.003644 C6.40935644,20.003644 6.75029524,19.8229755 6.98924738,19.4616333 C7.22819952,19.100291 7.42052397,18.5845118 7.56622649,17.9142802 L9.55068497,8.45531954 L7.86345816,8.45531954 L7.97710556,7.86959831 L9.77797977,7.2926192 L9.97904825,6.41840842 C10.2471409,5.25278821 10.6186768,4.42958129 11.093667,3.94876296 C11.5686572,3.46794462 12.2723899,3.22753906 13.204886,3.22753906 C13.4380101,3.22753906 13.7235827,3.26105014 14.0616126,3.3280733 C14.3996425,3.39509646 14.6619031,3.46940364 14.8484023,3.55099705 L14.4724917,4.67872896 C14.029556,4.50971403 13.6303371,4.42520783 13.2748229,4.42520783 C12.7677781,4.42520783 12.3787582,4.56653716 12.1077515,4.84920006 C11.8367448,5.13186296 11.6167373,5.64909917 11.4477224,6.4009242 L11.2291697,7.34507185 L13.3097913,7.34507185 L13.0912386,8.45531954 L11.0193591,8.45531954 L8.99119007,18.0541539 C8.76389413,19.155665 8.41421331,19.9599309 7.94213713,20.4669757 C7.47006095,20.9740205 6.8493775,21.2275391 6.08006816,21.2275391 L6.08006816,21.2275391 Z M16.6755028,13.1323472 L13.6507335,16.926422 L11.9460225,16.926422 L16.0985237,11.9871311 L14.00916,7.34507185 L15.4953183,7.34507185 L17.016445,10.9468203 L19.9013406,7.34507185 L21.5973095,7.34507185 L17.6196505,12.057068 L19.8226617,16.926422 L18.3539875,16.926422 L16.6755028,13.1323472 Z" id="fx"></path>
                </g>
            </g>
        </g>
    </g>
</svg>