<?xml version="1.0" encoding="UTF-8" standalone="no"?>
<svg width="24px" height="24px" viewBox="0 0 24 24" version="1.1" xmlns="http://www.w3.org/2000/svg" xmlns:xlink="http://www.w3.org/1999/xlink">
    <!-- Generator: Sketch 3.6.1 (26313) - http://www.bohemiancoding.com/sketch -->
    <title>Shape</title>
    <desc>Created with Sketch.</desc>
    <defs></defs>
    <g id="Page-1" stroke="none" stroke-width="1" fill="none" fill-rule="evenodd">
        <g id="Configured-Connectors_1.1-Copy-21" transform="translate(-26.000000, -164.000000)" fill="#FFFFFF">
            <g id="Main-Nav-Copy" transform="translate(-2.000000, 8.000000)">
                <g id="home" transform="translate(24.000000, 156.000000)">
                    <g id="puzzle" transform="translate(4.000000, 0.000000)">
                        <path d="M21.1428571,11.4285714 L19.4285714,11.4285714 L19.4285714,6.85714286 C19.4285714,5.58857143 18.4,4.57142857 17.1428571,4.57142857 L12.5714286,4.57142857 L12.5714286,2.85714286 C12.5714286,1.27918643 11.2922421,0 9.71428571,0 C8.13632929,-2.53765263e-16 6.85714286,1.27918643 6.85714286,2.85714286 L6.85714286,4.57142857 L2.28571429,4.57142857 C1.02334914,4.57142857 0,5.59477771 0,6.85714286 L0,11.2 L1.71428571,11.2 C3.42857143,11.2 4.8,12.5714286 4.8,14.2857143 C4.8,16 3.42857143,17.3714286 1.71428571,17.3714286 L0,17.3714286 L0,21.7142857 C0,22.9766509 1.02334914,24 2.28571429,24 L6.62857143,24 L6.62857143,22.2857143 C6.62857143,20.5714286 8,19.2 9.71428571,19.2 C11.4285714,19.2 12.8,20.5714286 12.8,22.2857143 L12.8,24 L17.1428571,24 C18.4052223,24 19.4285714,22.9766509 19.4285714,21.7142857 L19.4285714,17.1428571 L21.1428571,17.1428571 C22.7208136,17.1428571 24,15.8636707 24,14.2857143 C24,12.7077579 22.7208136,11.4285714 21.1428571,11.4285714 L21.1428571,11.4285714 Z" id="Shape"></path>
                    </g>
                </g>
            </g>
        </g>
    </g>
</svg>