<?xml version="1.0" encoding="UTF-8" standalone="no"?>
<svg width="6px" height="24px" viewBox="0 0 6 24" version="1.1" xmlns="http://www.w3.org/2000/svg" xmlns:xlink="http://www.w3.org/1999/xlink">
    <!-- Generator: Sketch 3.6.1 (26313) - http://www.bohemiancoding.com/sketch -->
    <title>ic_more_vert_black_48px</title>
    <desc>Created with Sketch.</desc>
    <defs></defs>
    <g id="Page-1" stroke="none" stroke-width="1" fill="none" fill-rule="evenodd">
        <g id="Left_Navigation_02-Copy-3" transform="translate(-1895.000000, -20.000000)">
            <g id="Header">
                <g id="ic_more_vert_black_48px" transform="translate(1880.000000, 14.000000)">
                    <g id="Group">
                        <path d="M0,0 L36,0 L36,36 L0,36 L0,0 Z" id="Shape"></path>
                        <path d="M18,12 C19.65,12 21,10.65 21,9 C21,7.35 19.65,6 18,6 C16.35,6 15,7.35 15,9 C15,10.65 16.35,12 18,12 L18,12 Z M18,15 C16.35,15 15,16.35 15,18 C15,19.65 16.35,21 18,21 C19.65,21 21,19.65 21,18 C21,16.35 19.65,15 18,15 L18,15 Z M18,24 C16.35,24 15,25.35 15,27 C15,28.65 16.35,30 18,30 C19.65,30 21,28.65 21,27 C21,25.35 19.65,24 18,24 L18,24 Z" id="Shape" fill="#FFFFFF"></path>
                    </g>
                </g>
            </g>
        </g>
    </g>
</svg>