<?xml version="1.0" encoding="UTF-8" standalone="no"?>
<svg width="22px" height="30px" viewBox="0 0 22 30" version="1.1" xmlns="http://www.w3.org/2000/svg" xmlns:xlink="http://www.w3.org/1999/xlink">
    <!-- Generator: Sketch 3.6.1 (26313) - http://www.bohemiancoding.com/sketch -->
    <title>Group</title>
    <desc>Created with Sketch.</desc>
    <defs></defs>
    <g id="Page-1" stroke="none" stroke-width="1" fill="none" fill-rule="evenodd">
        <g id="Configured-Connectors_1.1-Copy-20" transform="translate(-27.000000, -462.000000)">
            <g id="Main-Nav-Copy" transform="translate(-2.000000, 8.000000)">
                <g id="home" transform="translate(24.000000, 156.000000)">
                    <g id="ic_loop_black_24px" transform="translate(0.000000, 297.000000)">
                        <g id="Group">
                            <path d="M16,5.33333333 L16,1.33333333 L10.6666667,6.66666667 L16,12 L16,8 C20.4133333,8 24,11.5866667 24,16 C24,17.3466667 23.6666667,18.6266667 23.0666667,19.7333333 L25.0133333,21.68 C26.0533333,20.04 26.6666667,18.0933333 26.6666667,16 C26.6666667,10.1066667 21.8933333,5.33333333 16,5.33333333 L16,5.33333333 Z M16,24 C11.5866667,24 8,20.4133333 8,16 C8,14.6533333 8.33333333,13.3733333 8.93333333,12.2666667 L6.98666667,10.32 C5.94666667,11.96 5.33333333,13.9066667 5.33333333,16 C5.33333333,21.8933333 10.1066667,26.6666667 16,26.6666667 L16,30.6666667 L21.3333333,25.3333333 L16,20 L16,24 L16,24 Z" id="Shape" fill="#FFFFFF"></path>
                            <path d="M0,0 L32,0 L32,32 L0,32 L0,0 Z" id="Shape"></path>
                        </g>
                    </g>
                </g>
            </g>
        </g>
    </g>
</svg>