<?xml version="1.0" encoding="UTF-8" standalone="no"?>
<svg width="22px" height="21px" viewBox="0 0 22 21" version="1.1" xmlns="http://www.w3.org/2000/svg" xmlns:xlink="http://www.w3.org/1999/xlink">
    <!-- Generator: Sketch 3.6.1 (26313) - http://www.bohemiancoding.com/sketch -->
    <title>Search Icon</title>
    <desc>Created with Sketch.</desc>
    <defs></defs>
    <g id="Page-1" stroke="none" stroke-width="1" fill="none" fill-rule="evenodd">
        <g id="Configured-Connectors_1.1-Copy-23" transform="translate(-1875.000000, -25.000000)" fill="#FFFFFF">
            <g id="Header">
                <path d="M1889.28932,38.2663707 L1888.95914,37.936182 C1890.13581,36.5734033 1890.84421,34.8023913 1890.84421,32.8632832 C1890.84421,28.5528201 1887.35022,25.0588235 1883.03975,25.0588235 C1878.72929,25.0588235 1875.23529,28.5528201 1875.23529,32.8632832 C1875.23529,37.1737463 1878.72929,40.6677429 1883.03975,40.6677429 C1884.97886,40.6677429 1886.74987,39.9593381 1888.11265,38.7886692 L1888.44284,39.1188578 L1888.44284,40.0673999 L1894.44627,46.0588235 L1896.23529,44.2698012 L1890.24387,38.2663707 L1889.28932,38.2663707 Z M1883.03975,38.2663707 C1880.05605,38.2663707 1877.63667,35.8469882 1877.63667,32.8632832 C1877.63667,29.8795782 1880.05605,27.4601957 1883.03975,27.4601957 C1886.02346,27.4601957 1888.44284,29.8795782 1888.44284,32.8632832 C1888.44284,35.8469882 1886.02346,38.2663707 1883.03975,38.2663707 L1883.03975,38.2663707 Z" id="Search-Icon"></path>
            </g>
        </g>
    </g>
</svg>