<?xml version="1.0" encoding="UTF-8" standalone="no"?>
<svg width="22px" height="24px" viewBox="0 0 22 24" version="1.1" xmlns="http://www.w3.org/2000/svg" xmlns:xlink="http://www.w3.org/1999/xlink">
    <!-- Generator: Sketch 3.6.1 (26313) - http://www.bohemiancoding.com/sketch -->
    <title>Shape</title>
    <desc>Created with Sketch.</desc>
    <defs></defs>
    <g id="Page-1" stroke="none" stroke-width="1" fill="none" fill-rule="evenodd">
        <g id="Configured-Connectors_1.1-Copy-21" transform="translate(-27.000000, -241.000000)" fill="#2196F3">
            <g id="Main-Nav-Copy" transform="translate(-2.000000, 8.000000)">
                <g id="Highlighted-Copy" transform="translate(2.000000, 207.000000)">
                    <path d="M37.6666667,26 C31.7733333,26 27,28.3866667 27,31.3333333 C27,34.28 31.7733333,36.6666667 37.6666667,36.6666667 C43.56,36.6666667 48.3333333,34.28 48.3333333,31.3333333 C48.3333333,28.3866667 43.56,26 37.6666667,26 L37.6666667,26 Z M27,34 L27,38 C27,40.9466667 31.7733333,43.3333333 37.6666667,43.3333333 C43.56,43.3333333 48.3333333,40.9466667 48.3333333,38 L48.3333333,34 C48.3333333,36.9466667 43.56,39.3333333 37.6666667,39.3333333 C31.7733333,39.3333333 27,36.9466667 27,34 L27,34 Z M27,40.6666667 L27,44.6666667 C27,47.6133333 31.7733333,50 37.6666667,50 C43.56,50 48.3333333,47.6133333 48.3333333,44.6666667 L48.3333333,40.6666667 C48.3333333,43.6133333 43.56,46 37.6666667,46 C31.7733333,46 27,43.6133333 27,40.6666667 L27,40.6666667 Z" id="Shape"></path>
                </g>
            </g>
        </g>
    </g>
</svg>