<?xml version="1.0" encoding="UTF-8" standalone="no"?>
<svg width="28px" height="15px" viewBox="0 0 28 15" version="1.1" xmlns="http://www.w3.org/2000/svg" xmlns:xlink="http://www.w3.org/1999/xlink">
    <!-- Generator: Sketch 3.6.1 (26313) - http://www.bohemiancoding.com/sketch -->
    <title>Clipped Copy</title>
    <desc>Created with Sketch.</desc>
    <defs>
        <path id="path-1" d="M0,0 L36,0 L36,36 L0,36 L0,0 L0,0 Z"></path>
    </defs>
    <g id="Page-1" stroke="none" stroke-width="1" fill="none" fill-rule="evenodd">
        <g id="Configured-Connectors_1.1-Copy-21" transform="translate(-1372.000000, -752.000000)">
            <g id="Title:-Configured-Connectors" transform="translate(0.000000, 64.000000)">
                <g id="Right-Side-Icons" transform="translate(1215.000000, 13.000000)">
                    <g id="ic_timeline_black_24px-(3)" transform="translate(153.000000, 2.000000)">
                        <g id="Clipped-Copy" transform="translate(0.000000, 662.000000)">
                            <mask id="mask-2" fill="white">
                                <use xlink:href="#path-1"></use>
                            </mask>
                            <g id="a"></g>
                            <path d="M31.5,13.5 C31.5,14.875 30.375,16 29,16 C28.775,16 28.5625,15.975 28.3625,15.9125 L23.9125,20.35 C23.975,20.55 24,20.775 24,21 C24,22.375 22.875,23.5 21.5,23.5 C20.125,23.5 19,22.375 19,21 C19,20.775 19.025,20.55 19.0875,20.35 L15.9,17.1625 C15.7,17.225 15.475,17.25 15.25,17.25 C15.025,17.25 14.8,17.225 14.6,17.1625 L8.9125,22.8625 C8.975,23.0625 9,23.275 9,23.5 C9,24.875 7.875,26 6.5,26 C5.125,26 4,24.875 4,23.5 C4,22.125 5.125,21 6.5,21 C6.725,21 6.9375,21.025 7.1375,21.0875 L12.8375,15.4 C12.775,15.2 12.75,14.975 12.75,14.75 C12.75,13.375 13.875,12.25 15.25,12.25 C16.625,12.25 17.75,13.375 17.75,14.75 C17.75,14.975 17.725,15.2 17.6625,15.4 L20.85,18.5875 C21.05,18.525 21.275,18.5 21.5,18.5 C21.725,18.5 21.95,18.525 22.15,18.5875 L26.5875,14.1375 C26.525,13.9375 26.5,13.725 26.5,13.5 C26.5,12.125 27.625,11 29,11 C30.375,11 31.5,12.125 31.5,13.5 L31.5,13.5 Z" id="Shape-Copy" fill="#2196F3" mask="url(#mask-2)"></path>
                        </g>
                    </g>
                </g>
            </g>
        </g>
    </g>
</svg>