<?xml version="1.0" encoding="UTF-8" standalone="no"?>
<svg width="24px" height="24px" viewBox="0 0 24 24" version="1.1" xmlns="http://www.w3.org/2000/svg" xmlns:xlink="http://www.w3.org/1999/xlink">
    <!-- Generator: Sketch 3.6.1 (26313) - http://www.bohemiancoding.com/sketch -->
    <title>Group</title>
    <desc>Created with Sketch.</desc>
    <defs></defs>
    <g id="Page-1" stroke="none" stroke-width="1" fill="none" fill-rule="evenodd">
        <g id="Configured-Connectors_1.1-Copy-20" transform="translate(-26.000000, -317.000000)">
            <g id="Main-Nav-Copy" transform="translate(-2.000000, 8.000000)">
                <g id="home" transform="translate(24.000000, 156.000000)">
                    <g id="ic_device_hub_black_24px" transform="translate(0.000000, 149.000000)">
                        <g id="Group">
                            <path d="M0,0 L32,0 L32,32 L0,32 L0,0 L0,0 Z" id="Shape"></path>
                            <path d="M22.6666667,21.3333333 L17.3333333,16 L17.3333333,11.76 C18.88,11.2 20,9.73333333 20,8 C20,5.78666667 18.2133333,4 16,4 C13.7866667,4 12,5.78666667 12,8 C12,9.73333333 13.12,11.2 14.6666667,11.76 L14.6666667,16 L9.33333333,21.3333333 L4,21.3333333 L4,28 L10.6666667,28 L10.6666667,23.9333333 L16,18.3333333 L21.3333333,23.9333333 L21.3333333,28 L28,28 L28,21.3333333 L22.6666667,21.3333333 L22.6666667,21.3333333 Z" id="Shape" fill="#FFFFFF"></path>
                            <path d="M0,0 L32,0 L32,32 L0,32 L0,0 Z" id="Shape"></path>
                        </g>
                    </g>
                </g>
            </g>
        </g>
    </g>
</svg>