<?xml version="1.0" encoding="UTF-8" standalone="no"?>
<svg width="26px" height="24px" viewBox="0 0 26 24" version="1.1" xmlns="http://www.w3.org/2000/svg" xmlns:xlink="http://www.w3.org/1999/xlink">
    <!-- Generator: Sketch 3.6.1 (26313) - http://www.bohemiancoding.com/sketch -->
    <title>Page 1</title>
    <desc>Created with Sketch.</desc>
    <defs>
        <filter x="-50%" y="-50%" width="200%" height="200%" filterUnits="objectBoundingBox" id="filter-1">
            <feOffset dx="0" dy="2" in="SourceAlpha" result="shadowOffsetOuter1"></feOffset>
            <feGaussianBlur stdDeviation="1" in="shadowOffsetOuter1" result="shadowBlurOuter1"></feGaussianBlur>
            <feColorMatrix values="0 0 0 0 0   0 0 0 0 0   0 0 0 0 0  0 0 0 0.126 0" in="shadowBlurOuter1" type="matrix" result="shadowMatrixOuter1"></feColorMatrix>
            <feMerge>
                <feMergeNode in="shadowMatrixOuter1"></feMergeNode>
                <feMergeNode in="SourceGraphic"></feMergeNode>
            </feMerge>
        </filter>
    </defs>
    <g id="Page-1" stroke="none" stroke-width="1" fill="none" fill-rule="evenodd" filter="url(#filter-1)">
        <g id="Configured-Connectors_1.1-Copy-34" transform="translate(-1337.000000, -258.000000)">
            <g id="Table-Copy" transform="translate(811.000000, 186.000000)">
                <g id="Row-1" transform="translate(0.000000, 54.000000)">
                    <g id="Page-1" transform="translate(528.000000, 18.000000)">
                        <path d="M0,6 L15.519,6 L15.519,4 L0,4 L0,6 Z" id="Fill-1" fill="#727272"></path>
                        <path d="M0,2 L15.519,2 L15.519,0 L0,0 L0,2 Z" id="Fill-2" fill="#727272"></path>
                        <path d="M0,10 L8,10 L8,8 L0,8 L0,10 Z" id="Fill-3" fill="#727272"></path>
                        <path d="M0,14 L8,14 L8,12 L0,12 L0,14 Z" id="Fill-4" fill="#727272"></path>
                        <g id="Group-9" transform="translate(10.000000, 8.000000)" stroke="#6F6F6F" stroke-width="2">
                            <path d="M7.7567,3.98 C7.7567,6.12 6.0217,7.855 3.8817,7.855 C1.7417,7.855 0.0067,6.12 0.0067,3.98 C0.0067,1.84 1.7417,0.105 3.8817,0.105 C6.0217,0.105 7.7567,1.84 7.7567,3.98 L7.7567,3.98 Z" id="Stroke-5"></path>
                            <path d="M6.6269,7.126 L10.8639,11.363" id="Stroke-7"></path>
                        </g>
                    </g>
                </g>
            </g>
        </g>
    </g>
</svg>